<svg xmlns="http://www.w3.org/2000/svg" viewBox="0 0 350.36206 1929.54339"><defs><style>.cls-1{fill:#1b0c3e;}.cls-2{fill:#2c093e;}.cls-3{fill:#44093f;}.cls-4{fill:#670f40;}.cls-5{fill:#8b1741;}.cls-6{fill:#a61d43;}.cls-7{fill:#ce1f44;}.cls-8{fill:#372d68;}.cls-9{fill:#1c0e2d;}.cls-10{fill:#4a2d68;}</style></defs><g id="Layer_2" data-name="Layer 2"><g id="Layer_4" data-name="Layer 4"><polygon class="cls-1" points="128.327 1929.543 120.855 1546.082 217.522 1550.113 229.445 1915.805 128.327 1929.543"/><polygon class="cls-2" points="0 156.472 257.005 167.178 0 0 0 156.472"/><polygon class="cls-3" points="0 156.472 0 476.22 257.005 167.178 0 156.472"/><polygon class="cls-4" points="108.33 345.956 350.362 554.457 350.362 227.905 257.005 167.178 108.33 345.956"/><polygon class="cls-5" points="108.33 345.956 0 476.22 0 829.984 216.752 439.357 108.33 345.956"/><polygon class="cls-6" points="146.197 566.51 350.362 932.031 350.362 554.457 216.752 439.357 146.197 566.51"/><polygon class="cls-2" points="175.181 1659.969 0 1610.07 350.362 1421.858 350.362 1610.07 175.181 1659.969"/><polygon class="cls-3" points="186.945 1509.645 0 1248.92 0 1610.07 186.945 1509.645"/><polygon class="cls-4" points="109.265 1401.307 350.362 1205.858 350.362 1421.858 186.945 1509.645 109.265 1401.307"/><polygon class="cls-5" points="0 1248.92 0 1030.045 288.011 1256.404 109.265 1401.307 0 1248.92"/><polygon class="cls-6" points="128.886 1131.342 350.362 932.031 350.362 1205.858 288.011 1256.404 128.886 1131.342"/><polygon class="cls-7" points="0 829.984 0 1030.045 128.886 1131.342 350.362 932.031 146.197 566.51 0 829.984"/><polygon class="cls-1" points="0 44.22 350.362 282.331 350.362 227.905 0 0 0 44.22"/><polygon class="cls-1" points="0 1578.331 175.15 1625.953 350.362 1578.331 350.362 1610.07 175.181 1659.969 0 1610.07 0 1578.331"/><polygon class="cls-8" points="123.781 1696.248 175.181 1728 222.177 1692.889 228.313 1881.076 180.85 1861.795 127.615 1893.019 123.781 1696.248"/><polygon class="cls-9" points="128.1 1917.922 180.283 1893.019 228.313 1905.471 229.445 1915.805 128.327 1929.543 128.1 1917.922"/><polygon class="cls-10" points="124.687 1742.741 175.15 1772.22 223.642 1737.813 224.763 1772.22 227.387 1852.704 228.313 1881.076 180.85 1861.795 127.615 1893.019 126.992 1858.394 124.687 1742.741"/><polygon class="cls-8" points="128.1 1865.197 178.772 1830.047 227.387 1852.704 228.313 1881.076 180.85 1861.795 127.615 1893.019 128.1 1865.197"/></g></g></svg>