<svg xmlns="http://www.w3.org/2000/svg" xmlns:xlink="http://www.w3.org/1999/xlink" viewBox="0 0 780.27 78.74"><defs><style>.cls-1{fill:#003a55;}.cls-2,.cls-3,.cls-4,.cls-5{fill:none;stroke-miterlimit:10;}.cls-2{stroke:url(#linear-gradient);}.cls-3{stroke:url(#linear-gradient-2);}.cls-4{stroke:url(#linear-gradient-3);}.cls-5{stroke:url(#linear-gradient-4);}.cls-6{fill:url(#linear-gradient-5);}.cls-7{fill:#fff;}.cls-8{fill:url(#linear-gradient-6);}</style><linearGradient id="linear-gradient" y1="43.05" x2="164.82" y2="43.05" gradientUnits="userSpaceOnUse"><stop offset="0" stop-color="#006563"/><stop offset="1" stop-color="#006982"/></linearGradient><linearGradient id="linear-gradient-2" x1="164.17" y1="39.18" x2="328.99" y2="39.18" xlink:href="#linear-gradient"/><linearGradient id="linear-gradient-3" x1="328.34" y1="41.11" x2="493.16" y2="41.11" xlink:href="#linear-gradient"/><linearGradient id="linear-gradient-4" x1="492.51" y1="40.01" x2="780.27" y2="40.01" xlink:href="#linear-gradient"/><linearGradient id="linear-gradient-5" x1="390.09" y1="78.08" x2="390.09" gradientUnits="userSpaceOnUse"><stop offset="0" stop-color="#002d45"/><stop offset="1" stop-color="#006982" stop-opacity="0"/></linearGradient><linearGradient id="linear-gradient-6" x1="390.09" y1="23.29" x2="390.09" gradientUnits="userSpaceOnUse"><stop offset="0" stop-color="#bfe7fb" stop-opacity="0.6"/><stop offset="1" stop-color="#fff"/></linearGradient></defs><g id="Layer_2" data-name="Layer 2"><g id="Layer_8" data-name="Layer 8"><rect class="cls-1" x="0.28" width="779.63" height="78.08" rx="15.49"/></g><g id="Layer_7" data-name="Layer 7"><polyline class="cls-2" points="0.33 7.75 79.46 78.08 164.5 7.75"/><polyline class="cls-3" points="164.5 3.87 243.63 74.21 328.67 3.87"/><polyline class="cls-4" points="328.67 5.81 407.8 76.14 492.84 5.81"/><polyline class="cls-5" points="492.84 1.94 571.97 72.27 657.01 1.94 735.97 78.08 779.96 42.91"/></g><g id="Layer_5" data-name="Layer 5"><rect class="cls-6" x="0.28" width="779.63" height="78.08" rx="15.49"/></g><g id="Layer_6" data-name="Layer 6"><path class="cls-7" d="M764.47,0H15.83C7.27,0,.33,3.47.33,7.75v9.63c4.38,0,11.56.11,20.25.84,17.14,1.46,22.5,3.85,34.18,3.8,10.8,0,11.19-2.1,25.32-3.8,12.59-1.5,25-.81,49.36.64,29.88,1.77,28.09,3.07,39.24,2.53,18.8-.91,22.95-4.53,39.24-3.8,12.83.58,12.59,2.93,27.85,4.43,16.13,1.59,29.42.24,44.31-1.26,24.13-2.45,25.17-5,40.5-5.07,15.08,0,13.69,2.45,35.45,3.8,20.3,1.26,23.3-.8,48.1.63,12.88.75,14.51,1.45,22.78,1.27,15.1-.33,23.33-2.95,32.91-4.43,15.6-2.41,17.45,1.06,50.64,1.9,21.3.54,20.06-.65,39.24,0,26.69.91,27.77,3.17,46.59,3.29,26.55.17,27-4.32,50.87-3.93,24.28.4,25.63,5.08,50.64,5.07,11.72,0,14.58-1,40.5-3.17,17.77-1.46,32.31-2.28,41.66-2.74V7.75C780,3.47,773,0,764.47,0Z"/><path class="cls-8" d="M764.41,0H15.77C7.21,0,.28,3.47.28,7.75v9.63c4.38,0,11.55.11,20.25.84C37.67,19.68,43,22.07,54.7,22c10.8,0,11.19-2.1,25.32-3.8,12.59-1.5,25-.81,49.37.64,29.87,1.77,28.09,3.07,39.24,2.53,18.8-.91,22.94-4.53,39.24-3.8,12.82.58,12.59,2.93,27.85,4.43,16.13,1.59,29.42.24,44.3-1.26,24.13-2.45,25.17-5,40.51-5.07,15.08,0,13.68,2.45,35.44,3.8,20.3,1.26,23.31-.8,48.1.63,12.88.75,14.52,1.45,22.79,1.27,15.1-.33,23.33-2.95,32.91-4.43,15.6-2.41,17.45,1.06,50.63,1.9,21.31.54,20.07-.65,39.24,0,26.7.91,27.78,3.17,46.6,3.29,26.55.17,27-4.32,50.87-3.93,24.27.4,25.62,5.08,50.63,5.07,11.72,0,14.59-1,40.51-3.17,17.77-1.46,32.3-2.28,41.66-2.74V7.75C779.91,3.47,773,0,764.41,0Z"/></g></g></svg>