<svg xmlns="http://www.w3.org/2000/svg" viewBox="0 0 1280 720"><defs><style>.cls-1{fill:#133855;}.cls-2{fill:#062b46;}.cls-3{fill:#00243e;}.cls-4{fill:#001a32;}.cls-5{fill:#000722;}.cls-6{fill:#00000c;}</style></defs><g id="Layer_4" data-name="Layer 4"><rect class="cls-1" x="-0.06" width="1280" height="720"/></g><g id="Layer_1" data-name="Layer 1"><polygon class="cls-2" points="-0.06 720 -0.06 62.53 96.82 0 575.31 0 774.49 89.38 1279.94 62.53 1279.94 720 -0.06 720"/><polygon class="cls-3" points="1279.94 236.21 846.84 438.84 363.94 117.79 -0.06 236.21 -0.06 720 1279.94 720 1279.94 236.21"/><polygon class="cls-4" points="1279.94 536.21 1100.79 473.05 869.21 584.89 665.26 395.42 488.94 549.37 285 627 173.16 280.95 -0.06 537.53 -0.06 720 1279.94 720 1279.94 536.21"/><polygon class="cls-5" points="-0.06 616.47 262.63 720 738.95 661.21 1096.84 696.74 1279.94 616.47 1279.94 720 -0.06 720 -0.06 616.47"/><polygon class="cls-6" points="-0.06 683.16 124.35 720 698.15 720 788.95 708.58 881.05 720 1199.47 720 1280 683.16 1279.94 720 -0.06 720 -0.06 683.16"/></g><g id="Layer_2" data-name="Layer 2"><polygon class="cls-1" points="124.35 353.24 138.94 387.53 173.16 377 194.21 396.74 203.55 374.99 173.16 280.95 124.35 353.24"/><polygon class="cls-1" points="617.06 437.51 650.79 488.84 670.52 463.17 717.89 488.84 727.32 453.08 665.26 395.42 617.06 437.51"/><polygon class="cls-1" points="1044.01 500.47 1079.73 523.05 1121.84 500.47 1177.1 523.05 1183.66 502.27 1100.79 473.05 1044.01 500.47"/><polygon class="cls-1" points="239.32 158.33 170.48 180.73 253.42 180.73 286.42 237.53 321.84 178.32 386.31 227 408.68 190.16 473.15 221.74 459.67 181.44 363.94 117.79 239.32 158.33"/></g></svg>